<svg version="1.1" preserveAspectRatio="none" xmlns="http://www.w3.org/2000/svg" width="500" height="500" viewBox="0 0 500 500"><rect width="100%" height="100%" fill="#0B0633" fill-opacity="1"/><svg viewBox="142.1363 162.0992 337.9336 191" width="333" height="188.21153031246374" x="83.5px" y="155.8942px" xmlns="http://www.w3.org/2000/svg" xmlns:xlink="http://www.w3.org/1999/xlink" preserveAspectRatio="none"><defs></defs><style>.companyName {fill:#F5F4F4;fill-opacity:1;}.icon1 {fill:#FF4949;fill-opacity:1;}.icon2 {fill:#4F53FF;fill-opacity:1;}.icon3 {fill:#EB63DD;fill-opacity:1;}.icon3-str {stroke:#EB63DD;stroke-opacity:1;}.shapeStroke-str {stroke:#313131;stroke-opacity:1;}.text {fill:#F9F9F9;fill-opacity:1;}</style><g opacity="1" transform="rotate(0 142.1363 177.0992)">
<svg width="84.7855" height="120" x="142.1363" y="177.0992" version="1.1" preserveAspectRatio="none" viewBox="64.4957046508789 49.749000549316406 71.00859832763672 100.5009994506836">
  <g transform="matrix(1 0 0 1 0 0)"><g><path data-color="1" d="M130.383 60.265c0 5.808-4.708 10.516-10.516 10.516s-10.516-4.708-10.516-10.516 4.708-10.516 10.516-10.516 10.516 4.708 10.516 10.516z" class="icon1"></path><path data-color="2" d="M119.867 79.28c-11.223 0-28.714 70.97 0 70.97s11.223-70.97 0-70.97z" class="icon2"></path><path data-color="2" d="M80.133 149.44c-11.223 0-28.714-99.691 0-99.691s11.222 99.691 0 99.691z" class="icon2"></path></g></g>
</svg>
</g><g opacity="1" transform="rotate(0 289.9218 177.0992)">
<svg width="190.1481" height="120" x="289.9218" y="177.0992" version="1.1" preserveAspectRatio="none" viewBox="-0.48 -28.32 112.32000000000001 70.88">
  <g transform="matrix(1 0 0 1 0 0)" class="companyName"><path id="id-D6z1nYkh7" d="M33.88-27.52Q32.52-27.44 31.92-27.20Q31.32-26.96 31.10-26.28Q30.88-25.60 30.88-24.08L30.88-24.08L30.88-4.24Q30.88-2.72 31.10-2.04Q31.32-1.36 31.94-1.12Q32.56-0.88 33.88-0.80L33.88-0.80L33.88 0Q31.68-0.12 27.60-0.12L27.60-0.12Q23.32-0.12 21.28 0L21.28 0L21.28-0.80Q22.72-0.88 23.38-1.12Q24.04-1.36 24.28-2.04Q24.52-2.72 24.52-4.24L24.52-4.24L24.52-25.16L14.88 0.04L14.24 0.04L3.44-25.72L3.44-6.56Q3.44-4.20 3.68-3.10Q3.92-2 4.72-1.50Q5.52-1 7.32-0.80L7.32-0.80L7.32 0Q5.76-0.12 3.00-0.12L3.00-0.12Q0.80-0.12-0.48 0L-0.48 0L-0.48-0.80Q0.84-1 1.46-1.48Q2.08-1.96 2.30-3Q2.52-4.04 2.52-6.08L2.52-6.08L2.52-24.08Q2.52-25.60 2.30-26.28Q2.08-26.96 1.46-27.20Q0.84-27.44-0.48-27.52L-0.48-27.52L-0.48-28.32Q0.80-28.20 3.00-28.20L3.00-28.20Q6.68-28.20 9.32-28.32L9.32-28.32L17.40-8.84L24.76-28.20L27.60-28.20Q31.68-28.20 33.88-28.32L33.88-28.32L33.88-27.52Z M52-20.56Q54-20.56 55.08-20.68L55.08-20.68L55.08-19.88Q54.24-19.64 53.58-18.86Q52.92-18.08 52.32-16.44L52.32-16.44L45.16 3.68Q44.36 5.76 43.40 6.52L43.40 6.52Q42.24 7.52 39.92 7.52L39.92 7.52Q38.24 7.52 36.90 6.70Q35.56 5.88 35.56 4.32L35.56 4.32Q35.56 3.08 36.44 2.34Q37.32 1.60 38.76 1.60L38.76 1.60Q40.12 1.60 40.94 2.26Q41.76 2.92 41.76 4.12L41.76 4.12Q41.76 4.96 41.24 5.66Q40.72 6.36 39.76 6.72L39.76 6.72Q40.04 6.76 40.68 6.76L40.68 6.76Q43.16 6.76 44.32 3.60L44.32 3.60L44.96 1.68L36.48-17.60Q35.84-18.96 35.24-19.40Q34.64-19.84 34.00-19.84L34.00-19.84L34.00-20.68Q36.64-20.44 39.48-20.44L39.48-20.44Q41.84-20.44 45.04-20.68L45.04-20.68L45.04-19.84Q43.76-19.84 43.14-19.66Q42.52-19.48 42.52-18.72L42.52-18.72Q42.52-18.28 42.80-17.60L42.80-17.60L47.68-5.80L50.44-13.48Q51.08-15.36 51.08-16.68L51.08-16.68Q51.08-19.60 48.12-19.88L48.12-19.88L48.12-20.68Q50.00-20.56 52-20.56L52-20.56Z M35.88 13.80Q37.76 13.80 38.96 13.68L38.96 13.68L38.96 14.48Q37.96 14.88 37.02 16.02Q36.08 17.16 35.44 19.24L35.44 19.24L28.40 42.08Q27.96 42.04 27 42.04L27 42.04Q26.04 42.04 25.60 42.08L25.60 42.08L19.72 24.24L13.80 42.08Q13.36 42.04 12.40 42.04L12.40 42.04Q11.44 42.04 11 42.08L11 42.08L2.04 17.04Q1.56 15.72 0.88 15.12Q0.20 14.52-0.48 14.48L-0.48 14.48L-0.48 13.68Q1.92 13.80 5.48 13.80L5.48 13.80Q8.84 13.80 10.40 13.68L10.40 13.68L10.40 14.48Q9 14.68 9 16.04L9 16.04Q9 16.68 9.36 17.84L9.36 17.84L15.20 34.76L19.24 22.84L17.20 16.64Q16.80 15.48 16.26 15.02Q15.72 14.56 15 14.48L15 14.48L15 13.68Q17.24 13.80 20.72 13.80L20.72 13.80Q24.64 13.80 26.48 13.68L26.48 13.68L26.48 14.48Q25.04 14.52 24.40 14.82Q23.76 15.12 23.76 15.96L23.76 15.96Q23.76 16.68 24.16 17.84L24.16 17.84L29.64 34.56L33.44 22.48Q34.36 19.48 34.36 17.84L34.36 17.84Q34.36 16.12 33.50 15.34Q32.64 14.56 30.92 14.48L30.92 14.48L30.92 13.68Q33.64 13.80 35.88 13.80L35.88 13.80Z M42.24 42.28Q39.68 42.28 38.42 40.96Q37.16 39.64 37.16 37.48L37.16 37.48Q37.16 35.68 38.10 34.50Q39.04 33.32 40.38 32.68Q41.72 32.04 43.80 31.32L43.80 31.32Q46 30.56 47.02 29.94Q48.04 29.32 48.04 28.24L48.04 28.24L48.04 25.12Q48.04 23.44 47.26 22.50Q46.48 21.56 44.84 21.56L44.84 21.56Q42.92 21.56 41.92 22.52L41.92 22.52Q43.04 22.92 43.66 23.72Q44.28 24.52 44.28 25.60L44.28 25.60Q44.28 26.96 43.36 27.76Q42.44 28.56 41.12 28.56L41.12 28.56Q39.72 28.56 38.96 27.68Q38.20 26.80 38.20 25.48L38.20 25.48Q38.20 24.36 38.74 23.58Q39.28 22.80 40.40 22.12L40.40 22.12Q41.48 21.48 43.06 21.12Q44.64 20.76 46.52 20.76L46.52 20.76Q48.48 20.76 49.92 21.16Q51.36 21.56 52.32 22.52L52.32 22.52Q53.20 23.40 53.50 24.68Q53.80 25.96 53.80 28.16L53.80 28.16L53.80 39.04Q53.80 40 53.98 40.40Q54.16 40.80 54.68 40.80L54.68 40.80Q55.28 40.80 56.12 40.12L56.12 40.12L56.52 40.80Q54.72 42.28 52.12 42.28L52.12 42.28Q49.92 42.28 49.04 41.40Q48.16 40.52 48.12 39.04L48.12 39.04Q46.12 42.28 42.24 42.28L42.24 42.28ZM45.32 39.72Q46.88 39.72 48.04 38.08L48.04 38.08L48.04 29.88Q47.56 30.68 46 31.64L46 31.64Q44.44 32.64 43.64 33.64Q42.84 34.64 42.84 36.52L42.84 36.52Q42.84 38.16 43.52 38.94Q44.20 39.72 45.32 39.72L45.32 39.72Z M65.84 10.68L65.84 38.28Q65.84 39.92 66.40 40.54Q66.96 41.16 68.40 41.16L68.40 41.16L68.40 42Q64.24 41.84 63.04 41.84L63.04 41.84Q61.68 41.84 57.52 42L57.52 42L57.52 41.16Q58.92 41.16 59.50 40.54Q60.08 39.92 60.08 38.28L60.08 38.28L60.08 15.48Q60.08 13.64 59.50 12.80Q58.92 11.96 57.52 11.96L57.52 11.96L57.52 11.12Q58.80 11.24 60 11.24L60 11.24Q63.48 11.24 65.84 10.68L65.84 10.68Z M78.52 10.68L78.52 38.28Q78.52 39.92 79.08 40.54Q79.64 41.16 81.08 41.16L81.08 41.16L81.08 42Q76.92 41.84 75.72 41.84L75.72 41.84Q74.36 41.84 70.20 42L70.20 42L70.20 41.16Q71.60 41.16 72.18 40.54Q72.76 39.92 72.76 38.28L72.76 38.28L72.76 15.48Q72.76 13.64 72.18 12.80Q71.60 11.96 70.20 11.96L70.20 11.96L70.20 11.12Q71.48 11.24 72.68 11.24L72.68 11.24Q76.16 11.24 78.52 10.68L78.52 10.68Z M97.72 13.12Q101.96 13.12 105.14 14.84Q108.32 16.56 110.08 19.82Q111.84 23.08 111.84 27.60L111.84 27.60Q111.84 32 110.04 35.40Q108.24 38.80 105.02 40.68Q101.80 42.56 97.68 42.56L97.68 42.56Q93.44 42.56 90.26 40.84Q87.08 39.12 85.32 35.86Q83.56 32.60 83.56 28.08L83.56 28.08Q83.56 23.68 85.36 20.28Q87.16 16.88 90.38 15Q93.60 13.12 97.72 13.12L97.72 13.12ZM97.56 13.84Q95.36 13.84 93.68 15.62Q92.00 17.40 91.10 20.60Q90.20 23.80 90.20 27.92L90.20 27.92Q90.20 32.08 91.22 35.24Q92.24 38.40 93.98 40.12Q95.72 41.84 97.84 41.84L97.84 41.84Q100.04 41.84 101.72 40.06Q103.40 38.28 104.30 35.08Q105.20 31.88 105.20 27.76L105.20 27.76Q105.20 23.60 104.18 20.44Q103.16 17.28 101.42 15.56Q99.68 13.84 97.56 13.84L97.56 13.84Z"/></g>
</svg>
</g><g opacity="1" transform="rotate(0 256.9218 162.0992)">
<svg width="3" height="150" x="256.9218" y="162.0992" version="1.1" preserveAspectRatio="none" viewBox="0 0 3 150">
  <defs><rect x="0" y="0" width="3" height="150" rx="0px" ry="0px" id="id-tBXipXk0b1689436810830"></rect></defs><use class="companyName shapeStroke-str" style="stroke-width:0;" xlink:href="#id-tBXipXk0b1689436810830"></use>
</svg>
</g><g opacity="1" transform="rotate(0 165.8698 333.0992)">
<svg width="290.4666" height="20" x="165.8698" y="333.0992" version="1.1" preserveAspectRatio="none" viewBox="1.64 -30.28 556.08 38.28">
  <g transform="matrix(1 0 0 1 0 0)" class="text"><path id="id-D-YM9nyY425" d="M12.36 0.32Q9.20 0.32 6.26-0.66Q3.32-1.64 1.64-3.20L1.64-3.20L3.12-6.32Q4.72-4.88 7.22-3.98Q9.72-3.08 12.36-3.08L12.36-3.08Q15.84-3.08 17.56-4.26Q19.28-5.44 19.28-7.40L19.28-7.40Q19.28-8.84 18.34-9.74Q17.40-10.64 16.02-11.12Q14.64-11.60 12.12-12.20L12.12-12.20Q8.96-12.96 7.02-13.72Q5.08-14.48 3.70-16.06Q2.32-17.64 2.32-20.32L2.32-20.32Q2.32-22.56 3.50-24.36Q4.68-26.16 7.08-27.24Q9.48-28.32 13.04-28.32L13.04-28.32Q15.52-28.32 17.92-27.68Q20.32-27.04 22.04-25.84L22.04-25.84L20.72-22.64Q18.96-23.76 16.96-24.34Q14.96-24.92 13.04-24.92L13.04-24.92Q9.64-24.92 7.94-23.68Q6.24-22.44 6.24-20.48L6.24-20.48Q6.24-19.04 7.20-18.14Q8.16-17.24 9.58-16.74Q11-16.24 13.44-15.68L13.44-15.68Q16.60-14.92 18.52-14.16Q20.44-13.40 21.82-11.84Q23.20-10.28 23.20-7.64L23.20-7.64Q23.20-5.44 22-3.62Q20.80-1.80 18.36-0.74Q15.92 0.32 12.36 0.32L12.36 0.32Z M37.40-21.40Q41.80-21.40 44.14-19.24Q46.48-17.08 46.48-12.80L46.48-12.80L46.48 0L42.84 0L42.84-2.80Q41.88-1.32 40.10-0.54Q38.32 0.24 35.88 0.24L35.88 0.24Q32.32 0.24 30.18-1.48Q28.04-3.20 28.04-6L28.04-6Q28.04-8.80 30.08-10.50Q32.12-12.20 36.56-12.20L36.56-12.20L42.64-12.20L42.64-12.96Q42.64-15.44 41.20-16.76Q39.76-18.08 36.96-18.08L36.96-18.08Q35.08-18.08 33.28-17.46Q31.48-16.84 30.24-15.80L30.24-15.80L28.64-18.68Q30.28-20 32.56-20.70Q34.84-21.40 37.40-21.40L37.40-21.40ZM36.52-2.72Q38.72-2.72 40.32-3.70Q41.92-4.68 42.64-6.48L42.64-6.48L42.64-9.44L36.72-9.44Q31.84-9.44 31.84-6.16L31.84-6.16Q31.84-4.56 33.08-3.64Q34.32-2.72 36.52-2.72L36.52-2.72Z M69.40-21.20L73.16-21.20L63.88 0L59.96 0L50.68-21.20L54.68-21.20L61.96-4.20L69.40-21.20Z M96.52-10.48Q96.52-10.04 96.44-9.32L96.44-9.32L79.24-9.32Q79.60-6.52 81.70-4.82Q83.80-3.12 86.92-3.12L86.92-3.12Q90.72-3.12 93.04-5.68L93.04-5.68L95.16-3.20Q93.72-1.52 91.58-0.64Q89.44 0.24 86.80 0.24L86.80 0.24Q83.44 0.24 80.84-1.14Q78.24-2.52 76.82-5Q75.40-7.48 75.40-10.60L75.40-10.60Q75.40-13.68 76.78-16.16Q78.16-18.64 80.58-20.02Q83.00-21.40 86.04-21.40L86.04-21.40Q89.08-21.40 91.46-20.02Q93.84-18.64 95.18-16.16Q96.52-13.68 96.52-10.48L96.52-10.48ZM86.04-18.16Q83.28-18.16 81.42-16.48Q79.56-14.80 79.24-12.08L79.24-12.08L92.84-12.08Q92.52-14.76 90.66-16.46Q88.80-18.16 86.04-18.16L86.04-18.16Z M143.64-21.20L147.08-21.20L139.16 0L135.48 0L129.36-16.08L123.16 0L119.48 0L111.60-21.20L115.24-21.20L121.40-4.32L127.80-21.20L131.04-21.20L137.32-4.24L143.64-21.20Z M152.16 0L152.16-21.20L156-21.20L156 0L152.16 0ZM154.08-25.28Q152.96-25.28 152.22-26Q151.48-26.72 151.48-27.76L151.48-27.76Q151.48-28.80 152.22-29.54Q152.96-30.28 154.08-30.28L154.08-30.28Q155.20-30.28 155.94-29.58Q156.68-28.88 156.68-27.84L156.68-27.84Q156.68-26.76 155.94-26.02Q155.20-25.28 154.08-25.28L154.08-25.28Z M170.60 0.24Q168 0.24 165.60-0.46Q163.20-1.16 161.84-2.24L161.84-2.24L163.44-5.28Q164.84-4.28 166.84-3.68Q168.84-3.08 170.88-3.08L170.88-3.08Q175.92-3.08 175.92-5.96L175.92-5.96Q175.92-6.92 175.24-7.48Q174.56-8.04 173.54-8.30Q172.52-8.56 170.64-8.88L170.64-8.88Q168.08-9.28 166.46-9.80Q164.84-10.32 163.68-11.56Q162.52-12.80 162.52-15.04L162.52-15.04Q162.52-17.92 164.92-19.66Q167.32-21.40 171.36-21.40L171.36-21.40Q173.48-21.40 175.60-20.88Q177.72-20.36 179.08-19.48L179.08-19.48L177.44-16.44Q174.84-18.12 171.32-18.12L171.32-18.12Q168.88-18.12 167.60-17.32Q166.32-16.52 166.32-15.20L166.32-15.20Q166.32-14.16 167.04-13.56Q167.76-12.96 168.82-12.68Q169.88-12.40 171.80-12.04L171.80-12.04Q174.36-11.60 175.94-11.10Q177.52-10.60 178.64-9.40Q179.76-8.20 179.76-6.04L179.76-6.04Q179.76-3.16 177.30-1.46Q174.84 0.24 170.60 0.24L170.60 0.24Z M204.92-10.48Q204.92-10.04 204.84-9.32L204.84-9.32L187.64-9.32Q188.00-6.52 190.10-4.82Q192.20-3.12 195.32-3.12L195.32-3.12Q199.12-3.12 201.44-5.68L201.44-5.68L203.56-3.20Q202.12-1.52 199.98-0.64Q197.84 0.24 195.20 0.24L195.20 0.24Q191.84 0.24 189.24-1.14Q186.64-2.52 185.22-5Q183.80-7.48 183.80-10.60L183.80-10.60Q183.80-13.68 185.18-16.16Q186.56-18.64 188.98-20.02Q191.40-21.40 194.44-21.40L194.44-21.40Q197.48-21.40 199.86-20.02Q202.24-18.64 203.58-16.16Q204.92-13.68 204.92-10.48L204.92-10.48ZM194.44-18.16Q191.68-18.16 189.82-16.48Q187.96-14.80 187.64-12.08L187.64-12.08L201.24-12.08Q200.92-14.76 199.06-16.46Q197.20-18.16 194.44-18.16L194.44-18.16Z M211.44 0L211.44-29.68L215.28-29.68L215.28 0L211.44 0Z M238.80-21.20L242.56-21.20L232.28 2.12Q230.92 5.36 229.10 6.68Q227.28 8 224.72 8L224.72 8Q223.16 8 221.70 7.50Q220.24 7 219.28 6.04L219.28 6.04L220.92 3.16Q222.56 4.72 224.72 4.72L224.72 4.72Q226.12 4.72 227.06 3.98Q228.00 3.24 228.76 1.44L228.76 1.44L229.44-0.04L220.08-21.20L224.08-21.20L231.48-4.24L238.80-21.20Z M265.40 0.24Q262.80 0.24 260.40-0.46Q258.00-1.16 256.64-2.24L256.64-2.24L258.24-5.28Q259.64-4.28 261.64-3.68Q263.64-3.08 265.68-3.08L265.68-3.08Q270.72-3.08 270.72-5.96L270.72-5.96Q270.72-6.92 270.04-7.48Q269.36-8.04 268.34-8.30Q267.32-8.56 265.44-8.88L265.44-8.88Q262.88-9.28 261.26-9.80Q259.64-10.32 258.48-11.56Q257.32-12.80 257.32-15.04L257.32-15.04Q257.32-17.92 259.72-19.66Q262.12-21.40 266.16-21.40L266.16-21.40Q268.28-21.40 270.40-20.88Q272.52-20.36 273.88-19.48L273.88-19.48L272.24-16.44Q269.64-18.12 266.12-18.12L266.12-18.12Q263.68-18.12 262.40-17.32Q261.12-16.52 261.12-15.20L261.12-15.20Q261.12-14.16 261.84-13.56Q262.56-12.96 263.62-12.68Q264.68-12.40 266.60-12.04L266.60-12.04Q269.16-11.60 270.74-11.10Q272.32-10.60 273.44-9.40Q274.56-8.20 274.56-6.04L274.56-6.04Q274.56-3.16 272.10-1.46Q269.64 0.24 265.40 0.24L265.40 0.24Z M291.80-21.40Q294.88-21.40 297.32-20.04Q299.76-18.68 301.14-16.24Q302.52-13.80 302.52-10.60L302.52-10.60Q302.52-7.40 301.14-4.94Q299.76-2.48 297.32-1.12Q294.88 0.24 291.80 0.24L291.80 0.24Q289.52 0.24 287.62-0.64Q285.72-1.52 284.40-3.20L284.40-3.20L284.40 7.76L280.56 7.76L280.56-21.20L284.24-21.20L284.24-17.84Q285.52-19.60 287.48-20.50Q289.44-21.40 291.80-21.40L291.80-21.40ZM291.48-3.12Q293.52-3.12 295.14-4.06Q296.76-5 297.70-6.70Q298.64-8.40 298.64-10.60L298.64-10.60Q298.64-12.80 297.70-14.50Q296.76-16.20 295.14-17.12Q293.52-18.04 291.48-18.04L291.48-18.04Q289.48-18.04 287.86-17.10Q286.24-16.16 285.30-14.48Q284.36-12.80 284.36-10.60L284.36-10.60Q284.36-8.40 285.28-6.70Q286.20-5 287.84-4.06Q289.48-3.12 291.48-3.12L291.48-3.12Z M328.20-10.48Q328.20-10.04 328.12-9.32L328.12-9.32L310.92-9.32Q311.28-6.52 313.38-4.82Q315.48-3.12 318.60-3.12L318.60-3.12Q322.40-3.12 324.72-5.68L324.72-5.68L326.84-3.20Q325.40-1.52 323.26-0.64Q321.12 0.24 318.48 0.24L318.48 0.24Q315.12 0.24 312.52-1.14Q309.92-2.52 308.50-5Q307.08-7.48 307.08-10.60L307.08-10.60Q307.08-13.68 308.46-16.16Q309.84-18.64 312.26-20.02Q314.68-21.40 317.72-21.40L317.72-21.40Q320.76-21.40 323.14-20.02Q325.52-18.64 326.86-16.16Q328.20-13.68 328.20-10.48L328.20-10.48ZM317.72-18.16Q314.96-18.16 313.10-16.48Q311.24-14.80 310.92-12.08L310.92-12.08L324.52-12.08Q324.20-14.76 322.34-16.46Q320.48-18.16 317.72-18.16L317.72-18.16Z M346.04-21.40Q350.08-21.40 352.46-19.06Q354.84-16.72 354.84-12.20L354.84-12.20L354.84 0L351.00 0L351.00-11.76Q351.00-14.84 349.52-16.40Q348.04-17.96 345.28-17.96L345.28-17.96Q342.16-17.96 340.36-16.14Q338.56-14.32 338.56-10.92L338.56-10.92L338.56 0L334.72 0L334.72-21.20L338.40-21.20L338.40-18Q339.56-19.64 341.54-20.52Q343.52-21.40 346.04-21.40L346.04-21.40Z M379.44-29.68L383.28-29.68L383.28 0L379.60 0L379.60-3.36Q378.32-1.60 376.36-0.68Q374.40 0.24 372.04 0.24L372.04 0.24Q368.96 0.24 366.52-1.12Q364.08-2.48 362.70-4.94Q361.32-7.40 361.32-10.60L361.32-10.60Q361.32-13.80 362.70-16.24Q364.08-18.68 366.52-20.04Q368.96-21.40 372.04-21.40L372.04-21.40Q374.32-21.40 376.24-20.54Q378.16-19.68 379.44-18L379.44-18L379.44-29.68ZM372.36-3.12Q374.36-3.12 376.00-4.06Q377.64-5 378.56-6.70Q379.48-8.40 379.48-10.60L379.48-10.60Q379.48-12.80 378.56-14.50Q377.64-16.20 376.00-17.12Q374.36-18.04 372.36-18.04L372.36-18.04Q370.32-18.04 368.70-17.12Q367.08-16.20 366.14-14.50Q365.20-12.80 365.20-10.60L365.20-10.60Q365.20-8.40 366.14-6.70Q367.08-5 368.70-4.06Q370.32-3.12 372.36-3.12L372.36-3.12Z M415.04-21.40Q419.08-21.40 421.46-19.06Q423.84-16.72 423.84-12.20L423.84-12.20L423.84 0L420.00 0L420.00-11.76Q420.00-14.84 418.52-16.40Q417.04-17.96 414.28-17.96L414.28-17.96Q411.16-17.96 409.36-16.14Q407.56-14.32 407.56-10.92L407.56-10.92L407.56 0L403.72 0L403.72-29.68L407.56-29.68L407.56-18.20Q408.76-19.72 410.70-20.56Q412.64-21.40 415.04-21.40L415.04-21.40Z M439.88-21.40Q444.28-21.40 446.62-19.24Q448.96-17.08 448.96-12.80L448.96-12.80L448.96 0L445.32 0L445.32-2.80Q444.36-1.32 442.58-0.54Q440.80 0.24 438.36 0.24L438.36 0.24Q434.80 0.24 432.66-1.48Q430.52-3.20 430.52-6L430.52-6Q430.52-8.80 432.56-10.50Q434.60-12.20 439.04-12.20L439.04-12.20L445.12-12.20L445.12-12.96Q445.12-15.44 443.68-16.76Q442.24-18.08 439.44-18.08L439.44-18.08Q437.56-18.08 435.76-17.46Q433.96-16.84 432.72-15.80L432.72-15.80L431.12-18.68Q432.76-20 435.04-20.70Q437.32-21.40 439.88-21.40L439.88-21.40ZM439.00-2.72Q441.20-2.72 442.80-3.70Q444.40-4.68 445.12-6.48L445.12-6.48L445.12-9.44L439.20-9.44Q434.32-9.44 434.32-6.16L434.32-6.16Q434.32-4.56 435.56-3.64Q436.80-2.72 439.00-2.72L439.00-2.72Z M468.52-21.40Q471.60-21.40 474.04-20.04Q476.48-18.68 477.86-16.24Q479.24-13.80 479.24-10.60L479.24-10.60Q479.24-7.40 477.86-4.94Q476.48-2.48 474.04-1.12Q471.60 0.24 468.52 0.24L468.52 0.24Q466.24 0.24 464.34-0.64Q462.44-1.52 461.12-3.20L461.12-3.20L461.12 7.76L457.28 7.76L457.28-21.20L460.96-21.20L460.96-17.84Q462.24-19.60 464.20-20.50Q466.16-21.40 468.52-21.40L468.52-21.40ZM468.20-3.12Q470.24-3.12 471.86-4.06Q473.48-5 474.42-6.70Q475.36-8.40 475.36-10.60L475.36-10.60Q475.36-12.80 474.42-14.50Q473.48-16.20 471.86-17.12Q470.24-18.04 468.20-18.04L468.20-18.04Q466.20-18.04 464.58-17.10Q462.96-16.16 462.02-14.48Q461.08-12.80 461.08-10.60L461.08-10.60Q461.08-8.40 462.00-6.70Q462.92-5 464.56-4.06Q466.20-3.12 468.20-3.12L468.20-3.12Z M497.00-21.40Q500.08-21.40 502.52-20.04Q504.96-18.68 506.34-16.24Q507.72-13.80 507.72-10.60L507.72-10.60Q507.72-7.40 506.34-4.94Q504.96-2.48 502.52-1.12Q500.08 0.24 497.00 0.24L497.00 0.24Q494.72 0.24 492.82-0.64Q490.92-1.52 489.60-3.20L489.60-3.20L489.60 7.76L485.76 7.76L485.76-21.20L489.44-21.20L489.44-17.84Q490.72-19.60 492.68-20.50Q494.64-21.40 497.00-21.40L497.00-21.40ZM496.68-3.12Q498.72-3.12 500.34-4.06Q501.96-5 502.90-6.70Q503.84-8.40 503.84-10.60L503.84-10.60Q503.84-12.80 502.90-14.50Q501.96-16.20 500.34-17.12Q498.72-18.04 496.68-18.04L496.68-18.04Q494.68-18.04 493.06-17.10Q491.44-16.16 490.50-14.48Q489.56-12.80 489.56-10.60L489.56-10.60Q489.56-8.40 490.48-6.70Q491.40-5 493.04-4.06Q494.68-3.12 496.68-3.12L496.68-3.12Z M514.24 0L514.24-21.20L518.08-21.20L518.08 0L514.24 0ZM516.16-25.28Q515.04-25.28 514.30-26Q513.56-26.72 513.56-27.76L513.56-27.76Q513.56-28.80 514.30-29.54Q515.04-30.28 516.16-30.28L516.16-30.28Q517.28-30.28 518.02-29.58Q518.76-28.88 518.76-27.84L518.76-27.84Q518.76-26.76 518.02-26.02Q517.28-25.28 516.16-25.28L516.16-25.28Z M526.60 0L526.60-29.68L530.44-29.68L530.44 0L526.60 0Z M553.96-21.20L557.72-21.20L547.44 2.12Q546.08 5.36 544.26 6.68Q542.44 8 539.88 8L539.88 8Q538.32 8 536.86 7.50Q535.40 7 534.44 6.04L534.44 6.04L536.08 3.16Q537.72 4.72 539.88 4.72L539.88 4.72Q541.28 4.72 542.22 3.98Q543.16 3.24 543.92 1.44L543.92 1.44L544.60-0.04L535.24-21.20L539.24-21.20L546.64-4.24L553.96-21.20Z"/></g>
</svg>
</g></svg></svg>