<svg version="1.1" preserveAspectRatio="none" xmlns="http://www.w3.org/2000/svg" width="500" height="500" viewBox="0 0 500 500"><rect width="100%" height="100%" fill="#EDECEB" fill-opacity="1"/><svg viewBox="80.3586 92.5589 346.7452 408.283" width="282.80910936776695" height="333" x="108.5954px" y="83.5px" xmlns="http://www.w3.org/2000/svg" xmlns:xlink="http://www.w3.org/1999/xlink" preserveAspectRatio="none"><defs></defs><style>.companyName {fill:#5B4B42;fill-opacity:1;}.icon1 {fill:#B3D0D9;fill-opacity:1;}.icon2 {fill:#99A08E;fill-opacity:1;}.icon3 {fill:#DFC4B5;fill-opacity:1;}.icon3-str {stroke:#DFC4B5;stroke-opacity:1;}.text {fill:#5D4B40;fill-opacity:1;}</style><g opacity="1" transform="rotate(0 80.3586 92.5589)">
<svg width="346.7452" height="288.283" x="80.3586" y="92.5589" version="1.1" preserveAspectRatio="none" viewBox="13.999996185302734 28.5 171.99957275390625 143">
  <g transform="matrix(1 0 0 1 0 0)"><g><path d="M172.471 78.528h-1.867a.388.388 0 0 1 0-.776h1.867c.149 0 .297-.003.444-.008a.388.388 0 1 1 .028.776c-.157.006-.314.008-.472.008zm-3.416 0h-2.324a.388.388 0 0 1 0-.776h2.324a.388.388 0 0 1 0 .776zm-3.874 0h-2.324a.388.388 0 0 1 0-.776h2.324a.388.388 0 0 1 0 .776zm-3.874 0h-2.324a.388.388 0 0 1 0-.776h2.324a.388.388 0 0 1 0 .776zm-3.874 0h-2.171a.388.388 0 0 1 0-.776h2.171a.388.388 0 0 1 0 .776zm17.037-.151a.388.388 0 0 1-.057-.772 12.676 12.676 0 0 0 2.187-.537.389.389 0 0 1 .251.735c-.752.257-1.533.449-2.321.569a.317.317 0 0 1-.06.005zm3.688-1.141a.388.388 0 0 1-.168-.738 12.734 12.734 0 0 0 1.937-1.153.388.388 0 0 1 .453.63c-.647.467-1.338.879-2.054 1.223a.391.391 0 0 1-.168.038zm3.195-2.167a.388.388 0 0 1-.262-.674 12.912 12.912 0 0 0 1.522-1.666.387.387 0 1 1 .615.473 13.644 13.644 0 0 1-1.615 1.766.377.377 0 0 1-.26.101zm2.437-3.002a.388.388 0 0 1-.332-.587c.384-.649.713-1.334.975-2.036a.387.387 0 1 1 .726.273 13.664 13.664 0 0 1-1.034 2.159.388.388 0 0 1-.335.191zm1.463-3.582a.388.388 0 0 1-.377-.481c.178-.728.292-1.478.34-2.232a.39.39 0 0 1 .411-.363.388.388 0 0 1 .362.412 13.628 13.628 0 0 1-.361 2.367.386.386 0 0 1-.375.297zm.359-3.851a.388.388 0 0 1-.387-.368 12.92 12.92 0 0 0-.314-2.236.387.387 0 1 1 .754-.176c.18.775.292 1.573.334 2.371a.388.388 0 0 1-.367.408l-.02.001zm-.764-3.792a.386.386 0 0 1-.364-.256 12.886 12.886 0 0 0-.951-2.046.39.39 0 0 1 .141-.531.385.385 0 0 1 .529.141c.398.69.738 1.421 1.009 2.171a.39.39 0 0 1-.364.521zm-1.832-3.403a.387.387 0 0 1-.311-.156 12.895 12.895 0 0 0-1.502-1.683.39.39 0 0 1-.018-.549.385.385 0 0 1 .547-.018 13.694 13.694 0 0 1 1.593 1.785.39.39 0 0 1-.309.621zm-2.739-2.728a.389.389 0 0 1-.23-.076 12.803 12.803 0 0 0-1.923-1.176.388.388 0 1 1 .343-.696c.712.353 1.399.773 2.04 1.247a.39.39 0 0 1-.23.701zm-3.408-1.817a.384.384 0 0 1-.129-.022 12.724 12.724 0 0 0-2.181-.562.388.388 0 0 1-.319-.446.382.382 0 0 1 .445-.32c.785.129 1.564.33 2.314.596a.39.39 0 0 1-.13.754zm-3.787-.741h-.019a12.969 12.969 0 0 0-.593-.014h-1.713a.388.388 0 0 1 0-.776h1.713c.211 0 .42.005.629.014a.388.388 0 0 1-.017.776zm-3.874-.014h-2.324a.388.388 0 0 1 0-.776h2.324a.388.388 0 0 1 0 .776zm-3.874 0h-2.324a.388.388 0 0 1 0-.776h2.324a.388.388 0 0 1 0 .776zm-3.874 0h-2.324a.388.388 0 0 1 0-.776h2.324a.388.388 0 0 1 0 .776zm-3.874 0h-2.324a.388.388 0 0 1 0-.776h2.324a.388.388 0 0 1 0 .776z" data-color="1" class="icon1"></path><path d="M98.861 166.615h-.775v-1.076a.387.387 0 1 1 .774 0v1.076zm-.388-2.238a.388.388 0 0 1-.387-.388v-2.328a.387.387 0 1 1 .774 0v2.328a.387.387 0 0 1-.387.388zm0-3.88a.388.388 0 0 1-.387-.388v-2.329a.387.387 0 1 1 .774 0v2.329a.386.386 0 0 1-.387.388zm0-3.881a.388.388 0 0 1-.387-.388v-2.329a.387.387 0 1 1 .774 0v2.329a.387.387 0 0 1-.387.388zm0-3.882a.388.388 0 0 1-.387-.388v-2.329a.387.387 0 1 1 .774 0v2.329a.387.387 0 0 1-.387.388zm-.001-3.882a.388.388 0 0 1-.387-.387 36.357 36.357 0 0 0-.084-2.301.388.388 0 1 1 .773-.055c.053.758.082 1.55.087 2.352a.388.388 0 0 1-.386.39l-.003.001zm-.232-3.871a.388.388 0 0 1-.384-.342 26.143 26.143 0 0 0-.371-2.261.388.388 0 0 1 .759-.162c.157.743.286 1.526.382 2.329a.388.388 0 0 1-.386.436zm-.749-3.801a.388.388 0 0 1-.372-.281 19.101 19.101 0 0 0-.751-2.149.388.388 0 1 1 .714-.303c.297.705.56 1.457.783 2.238a.39.39 0 0 1-.374.495zm-1.432-3.591a.387.387 0 0 1-.342-.205 14.58 14.58 0 0 0-1.217-1.906.389.389 0 0 1 .618-.469c.47.622.902 1.298 1.282 2.008a.389.389 0 0 1-.341.572zm-2.25-3.139a.386.386 0 0 1-.281-.121 13.529 13.529 0 0 0-1.683-1.503.39.39 0 0 1-.077-.544.387.387 0 0 1 .543-.077 14.477 14.477 0 0 1 1.78 1.589.39.39 0 0 1-.282.656zm-3.017-2.41a.385.385 0 0 1-.198-.055 15.967 15.967 0 0 0-2.025-1.02.389.389 0 0 1 .299-.717c.747.313 1.461.673 2.123 1.07a.389.389 0 0 1-.199.722zm-3.526-1.583a.386.386 0 0 1-.12-.019 21.937 21.937 0 0 0-2.206-.588.388.388 0 0 1 .162-.76c.796.17 1.565.375 2.284.609a.388.388 0 0 1-.12.758zm-3.769-.877a.403.403 0 0 1-.059-.005c-.723-.111-1.491-.2-2.283-.265a.389.389 0 0 1 .063-.775c.81.067 1.597.158 2.337.272a.388.388 0 0 1-.058.773zm-3.858-.365h-.018a57.525 57.525 0 0 0-2.311-.053.388.388 0 0 1 .001-.777h.002c.756.003 1.54.018 2.342.054a.388.388 0 0 1-.016.776zm-39.918-.015c-.39 0-.779-.009-1.166-.027a.388.388 0 0 1 .036-.776c.382.017.769.021 1.154.026h1.152a.388.388 0 0 1 0 .776h-1.152l-.024.001zm32.168 0h-2.324a.388.388 0 0 1 0-.776h2.324a.388.388 0 0 1 0 .776zm-3.874 0H65.69a.388.388 0 0 1 0-.776h2.324a.388.388 0 0 1 .001.776zm-3.874 0h-2.324a.388.388 0 0 1 0-.776h2.324a.388.388 0 0 1 0 .776zm-3.874 0h-2.324a.388.388 0 0 1 0-.776h2.324a.388.388 0 0 1 0 .776zm-3.874 0h-2.324a.388.388 0 0 1 0-.776h2.324a.388.388 0 0 1 0 .776zm-3.874 0h-2.324a.388.388 0 0 1 0-.776h2.324a.388.388 0 0 1 0 .776zm-3.874 0H46.32a.388.388 0 0 1 0-.776h2.324a.388.388 0 0 1 .001.776zm-3.874 0h-2.324a.388.388 0 0 1 0-.776h2.324a.388.388 0 0 1 0 .776zm28.668-.002a.387.387 0 0 1-.387-.385.387.387 0 0 1 .384-.391c.395-.003.811-.009 1.244-.016l1.08-.015a.389.389 0 0 1 .009.777l-1.077.014c-.434.006-.852.013-1.249.016h-.004zm-36.41-.142l-.042-.002a25.708 25.708 0 0 1-2.331-.358.388.388 0 0 1 .152-.762c.743.149 1.504.266 2.261.347a.388.388 0 0 1 .344.427.386.386 0 0 1-.384.348zm-3.805-.705a.374.374 0 0 1-.099-.013 25.624 25.624 0 0 1-2.25-.711.388.388 0 0 1 .267-.729c.714.263 1.448.495 2.181.689a.388.388 0 0 1-.099.764zm-3.65-1.278a.39.39 0 0 1-.155-.033 25.475 25.475 0 0 1-2.114-1.048.389.389 0 0 1 .376-.68c.664.368 1.353.71 2.05 1.016a.389.389 0 0 1-.157.745zm-3.413-1.824a.383.383 0 0 1-.207-.061 25.664 25.664 0 0 1-1.931-1.358.39.39 0 0 1-.07-.545.385.385 0 0 1 .543-.07c.601.465 1.231.908 1.872 1.317a.388.388 0 0 1-.207.717zm-3.098-2.324a.38.38 0 0 1-.255-.096 26.021 26.021 0 0 1-1.703-1.636.388.388 0 0 1 .561-.536 25.256 25.256 0 0 0 1.653 1.587.39.39 0 0 1-.256.681zm-2.712-2.768a.389.389 0 0 1-.297-.138 26.004 26.004 0 0 1-1.436-1.875.387.387 0 1 1 .635-.445c.433.622.902 1.235 1.393 1.819a.388.388 0 0 1-.295.639zm-2.262-3.148a.386.386 0 0 1-.331-.186 25.828 25.828 0 0 1-1.136-2.073.39.39 0 0 1 .177-.52.386.386 0 0 1 .518.178c.336.685.706 1.361 1.102 2.01a.388.388 0 0 1-.33.591zm-1.76-3.458a.39.39 0 0 1-.358-.239 25.59 25.59 0 0 1-.806-2.223.387.387 0 1 1 .739-.231c.227.729.49 1.454.782 2.155a.39.39 0 0 1-.357.538zm-1.21-3.685a.388.388 0 0 1-.376-.295 25.7 25.7 0 0 1-.457-2.32.388.388 0 1 1 .767-.115c.113.754.262 1.511.443 2.25a.388.388 0 0 1-.377.48zm-.633-3.827a.388.388 0 0 1-.386-.354c-.067-.757-.1-1.53-.1-2.296 0-.215.173-.42.387-.42s.387.141.387.356v.064c0 .743.033 1.493.097 2.228a.388.388 0 0 1-.352.421l-.033.001zm-.048-3.879l-.025-.001a.387.387 0 0 1-.362-.412c.05-.787.135-1.578.255-2.35a.388.388 0 0 1 .765.119c-.116.75-.199 1.517-.247 2.28a.387.387 0 0 1-.386.364zm.535-3.841a.388.388 0 0 1-.378-.471 25.47 25.47 0 0 1 .61-2.285.388.388 0 1 1 .739.235c-.23.726-.429 1.471-.592 2.216a.39.39 0 0 1-.379.305zm1.115-3.715a.388.388 0 0 1-.362-.528c.282-.732.602-1.46.951-2.164a.386.386 0 0 1 .519-.175c.191.096.27.328.174.521a24.748 24.748 0 0 0-.922 2.098.384.384 0 0 1-.36.248zm1.667-3.498a.389.389 0 0 1-.335-.582c.392-.682.819-1.352 1.269-1.993a.388.388 0 1 1 .633.447 24.877 24.877 0 0 0-1.231 1.933.386.386 0 0 1-.336.195zm2.181-3.204a.388.388 0 0 1-.303-.631 25.99 25.99 0 0 1 1.556-1.777.387.387 0 1 1 .559.538 24.946 24.946 0 0 0-1.509 1.724.387.387 0 0 1-.303.146zm2.641-2.837a.388.388 0 0 1-.262-.674 25.845 25.845 0 0 1 1.806-1.521.387.387 0 1 1 .471.616 25.35 25.35 0 0 0-1.752 1.475.379.379 0 0 1-.263.104zm3.038-2.403a.389.389 0 0 1-.216-.711c.653-.44 1.331-.853 2.016-1.228a.387.387 0 1 1 .372.682 25.13 25.13 0 0 0-1.956 1.191.391.391 0 0 1-.216.066zm3.369-1.914a.388.388 0 0 1-.165-.74c.71-.334 1.443-.638 2.18-.905a.388.388 0 1 1 .263.73c-.714.259-1.425.554-2.114.878a.37.37 0 0 1-.164.037zm3.618-1.373a.388.388 0 0 1-.109-.761 25.509 25.509 0 0 1 2.292-.559.386.386 0 0 1 .454.307.388.388 0 0 1-.306.456c-.745.146-1.493.328-2.222.543a.453.453 0 0 1-.109.014zm3.785-.802a.389.389 0 0 1-.051-.774 26.02 26.02 0 0 1 2.349-.203.389.389 0 0 1 .031.776 25.562 25.562 0 0 0-2.329.201zm13.936-.22h-2.324a.388.388 0 0 1 0-.776h2.324a.388.388 0 0 1 0 .776zm-3.874 0h-2.324a.388.388 0 0 1 0-.776h2.324a.388.388 0 0 1 0 .776zm-3.874 0h-2.324a.388.388 0 0 1 0-.776h2.324a.388.388 0 0 1 0 .776z" data-color="1" class="icon1"></path><path d="M29.875 39.691a.775.775 0 0 0-.983-.487l-2.409.818v-2.577a.776.776 0 1 0-1.55 0v2.577l-2.409-.818a.778.778 0 0 0-.498 1.472l2.428.824-1.492 2.03a.778.778 0 0 0 .623 1.237.773.773 0 0 0 .625-.316l1.497-2.037 1.497 2.037a.773.773 0 0 0 1.084.165.777.777 0 0 0 .164-1.086L26.96 41.5l2.428-.824a.777.777 0 0 0 .487-.985z" data-color="2" class="icon2"></path><path d="M177.474 132.771a.851.851 0 0 1-.1-.006l-3.621-.466a.777.777 0 0 1 .197-1.54l3.621.466a.777.777 0 0 1-.097 1.546z" data-color="1" class="icon1"></path><path d="M175.883 136.036a.777.777 0 0 1-.695-1.118l1.589-3.265a.77.77 0 0 1 1.036-.357.777.777 0 0 1 .356 1.039l-1.589 3.265a.774.774 0 0 1-.697.436z" data-color="1" class="icon1"></path><path d="M177.472 132.771a.776.776 0 0 1-.759-.624l-.715-3.562a.778.778 0 0 1 .607-.915.777.777 0 0 1 .913.608l.715 3.562a.778.778 0 0 1-.761.931z" data-color="1" class="icon1"></path><path d="M177.474 132.771a.775.775 0 0 1-.377-1.455l3.125-1.742a.777.777 0 0 1 .753 1.358l-3.125 1.742a.778.778 0 0 1-.376.097z" data-color="1" class="icon1"></path><path d="M180.057 135.248a.768.768 0 0 1-.535-.215l-2.584-2.477a.779.779 0 0 1-.025-1.098.774.774 0 0 1 1.096-.025l2.584 2.477a.779.779 0 0 1-.536 1.338z" data-color="1" class="icon1"></path><path d="M163.86 147.09a1.373 1.373 0 0 1-1.072 1.618 1.373 1.373 0 0 1-1.615-1.077 1.373 1.373 0 0 1 1.073-1.617 1.373 1.373 0 0 1 1.615 1.077z" data-color="2" class="icon2"></path><path d="M147.308 91.424H56.256V35.742h91.052v55.682zM57.805 89.87h87.953V37.295H57.805V89.87z" data-color="1" class="icon1"></path><path d="M110.937 58.295L86.505 78.913a1.168 1.168 0 0 0-.141 1.642 1.157 1.157 0 0 0 1.638.141l24.432-20.618a1.168 1.168 0 0 0 .141-1.642 1.16 1.16 0 0 0-1.638-.141z" data-color="2" class="icon2"></path><path d="M92.887 68.026a1.16 1.16 0 0 0-1.637-.141L75.513 81.166a1.168 1.168 0 0 0-.141 1.642 1.157 1.157 0 0 0 1.638.141l15.737-13.281a1.167 1.167 0 0 0 .14-1.642z" data-color="2" class="icon2"></path><path d="M164.977 107.613v-.336h-.335l-10.24-10.261V32.388a3.887 3.887 0 0 0-3.877-3.888H53.039a3.887 3.887 0 0 0-3.877 3.888v64.629l-10.643 10.665h.745v6.154a4.325 4.325 0 0 0 4.316 4.326h117.083a4.326 4.326 0 0 0 4.315-4.326v-6.154h.068l-.069-.069zM51.486 32.388c0-.858.696-1.557 1.553-1.557h97.486c.856 0 1.553.699 1.553 1.557v63.947H51.486V32.388zm-.681 66.277h101.954l6.672 6.686h-46.425l-.552 4.108H91.11l-.552-4.108H44.132l6.673-6.686zm111.847 15.171c0 1.1-.893 1.996-1.991 1.996H43.578a1.996 1.996 0 0 1-1.991-1.996v-6.154h46.938l.296 2.2a2.204 2.204 0 0 0 2.176 1.908h21.57c1.094 0 2.029-.82 2.176-1.908l.296-2.201h47.614v6.155z" data-color="2" class="icon2"></path><path d="M98.473 171.5l8.064-14.005H90.409l8.064 14.005z" data-color="1" class="icon1"></path></g></g>
</svg>
</g><g opacity="1" transform="rotate(0 107.0024 478.8419)">
<svg width="293.4577" height="22" x="107.0024" y="478.8419" version="1.1" preserveAspectRatio="none" viewBox="1.16 -29.46 484.4 36.32">
  <g transform="matrix(1 0 0 1 0 0)" class="text"><path id="id-6izo4zJp25" d="M19.10-26.02L18.16-24.18Q17.98-23.88 17.78-23.73Q17.58-23.58 17.26-23.58L17.26-23.58Q16.92-23.58 16.47-23.92Q16.02-24.26 15.33-24.67Q14.64-25.08 13.67-25.42Q12.70-25.76 11.32-25.76L11.32-25.76Q10.02-25.76 9.02-25.41Q8.02-25.06 7.35-24.46Q6.68-23.86 6.34-23.05Q6-22.24 6-21.30L6-21.30Q6-20.10 6.59-19.31Q7.18-18.52 8.15-17.96Q9.12-17.40 10.35-16.99Q11.58-16.58 12.87-16.14Q14.16-15.70 15.39-15.15Q16.62-14.60 17.59-13.76Q18.56-12.92 19.15-11.70Q19.74-10.48 19.74-8.70L19.74-8.70Q19.74-6.82 19.10-5.17Q18.46-3.52 17.23-2.30Q16-1.08 14.21-0.38Q12.42 0.32 10.14 0.32L10.14 0.32Q7.36 0.32 5.07-0.69Q2.78-1.70 1.16-3.42L1.16-3.42L2.28-5.26Q2.44-5.48 2.67-5.63Q2.90-5.78 3.18-5.78L3.18-5.78Q3.60-5.78 4.14-5.33Q4.68-4.88 5.49-4.34Q6.30-3.80 7.45-3.35Q8.60-2.90 10.26-2.90L10.26-2.90Q11.64-2.90 12.72-3.28Q13.80-3.66 14.55-4.35Q15.30-5.04 15.70-6Q16.10-6.96 16.10-8.14L16.10-8.14Q16.10-9.44 15.51-10.27Q14.92-11.10 13.96-11.66Q13-12.22 11.77-12.61Q10.54-13 9.25-13.41Q7.96-13.82 6.73-14.36Q5.50-14.90 4.54-15.76Q3.58-16.62 2.99-17.91Q2.40-19.20 2.40-21.10L2.40-21.10Q2.40-22.62 2.99-24.04Q3.58-25.46 4.70-26.56Q5.82-27.66 7.47-28.32Q9.12-28.98 11.26-28.98L11.26-28.98Q13.66-28.98 15.64-28.22Q17.62-27.46 19.10-26.02L19.10-26.02Z M40.60-12.96L40.60 0L39.02 0Q38.50 0 38.18-0.16Q37.86-0.32 37.76-0.84L37.76-0.84L37.36-2.72Q36.56-2 35.80-1.43Q35.04-0.86 34.20-0.47Q33.36-0.08 32.41 0.12Q31.46 0.32 30.30 0.32L30.30 0.32Q29.12 0.32 28.09-0.01Q27.06-0.34 26.30-1Q25.54-1.66 25.09-2.67Q24.64-3.68 24.64-5.06L24.64-5.06Q24.64-6.26 25.30-7.37Q25.96-8.48 27.43-9.34Q28.90-10.20 31.28-10.75Q33.66-11.30 37.10-11.38L37.10-11.38L37.10-12.96Q37.10-15.32 36.09-16.53Q35.08-17.74 33.10-17.74L33.10-17.74Q31.80-17.74 30.91-17.41Q30.02-17.08 29.37-16.67Q28.72-16.26 28.25-15.93Q27.78-15.60 27.32-15.60L27.32-15.60Q26.96-15.60 26.69-15.79Q26.42-15.98 26.26-16.26L26.26-16.26L25.62-17.40Q27.30-19.02 29.24-19.82Q31.18-20.62 33.54-20.62L33.54-20.62Q35.24-20.62 36.56-20.06Q37.88-19.50 38.78-18.50Q39.68-17.50 40.14-16.08Q40.60-14.66 40.60-12.96L40.60-12.96ZM31.36-2.18L31.36-2.18Q32.30-2.18 33.08-2.37Q33.86-2.56 34.55-2.91Q35.24-3.26 35.87-3.76Q36.50-4.26 37.10-4.90L37.10-4.90L37.10-9.12Q34.64-9.04 32.92-8.73Q31.20-8.42 30.12-7.92Q29.04-7.42 28.55-6.74Q28.06-6.06 28.06-5.22L28.06-5.22Q28.06-4.42 28.32-3.84Q28.58-3.26 29.02-2.89Q29.46-2.52 30.06-2.35Q30.66-2.18 31.36-2.18Z M52.66 0L44.40-20.26L47.32-20.26Q47.74-20.26 48.02-20.04Q48.30-19.82 48.42-19.52L48.42-19.52L53.56-6.48Q53.84-5.76 54-5.04Q54.16-4.32 54.30-3.62L54.30-3.62Q54.46-4.32 54.64-5.04Q54.82-5.76 55.10-6.48L55.10-6.48L60.30-19.52Q60.42-19.84 60.69-20.05Q60.96-20.26 61.36-20.26L61.36-20.26L64.14-20.26L55.88 0L52.66 0Z M76.54-20.58L76.54-20.58Q78.36-20.58 79.90-19.97Q81.44-19.36 82.56-18.21Q83.68-17.06 84.31-15.37Q84.94-13.68 84.94-11.52L84.94-11.52Q84.94-10.68 84.76-10.40Q84.58-10.12 84.08-10.12L84.08-10.12L70.60-10.12Q70.64-8.20 71.12-6.78Q71.60-5.36 72.44-4.41Q73.28-3.46 74.44-2.99Q75.60-2.52 77.04-2.52L77.04-2.52Q78.38-2.52 79.35-2.83Q80.32-3.14 81.02-3.50Q81.72-3.86 82.19-4.17Q82.66-4.48 83-4.48L83-4.48Q83.44-4.48 83.68-4.14L83.68-4.14L84.68-2.84Q84.02-2.04 83.10-1.45Q82.18-0.86 81.13-0.48Q80.08-0.10 78.96 0.09Q77.84 0.28 76.74 0.28L76.74 0.28Q74.64 0.28 72.87-0.43Q71.10-1.14 69.81-2.51Q68.52-3.88 67.80-5.90Q67.08-7.92 67.08-10.54L67.08-10.54Q67.08-12.66 67.73-14.50Q68.38-16.34 69.60-17.69Q70.82-19.04 72.58-19.81Q74.34-20.58 76.54-20.58ZM76.62-17.96L76.62-17.96Q74.04-17.96 72.56-16.47Q71.08-14.98 70.72-12.34L70.72-12.34L81.74-12.34Q81.74-13.58 81.40-14.61Q81.06-15.64 80.40-16.39Q79.74-17.14 78.79-17.55Q77.84-17.96 76.62-17.96Z M104.32 0L97.76-20.26L100.56-20.26Q101.00-20.26 101.28-20.04Q101.56-19.82 101.66-19.52L101.66-19.52L105.54-6.48Q105.70-5.76 105.84-5.09Q105.98-4.42 106.08-3.74L106.08-3.74Q106.24-4.42 106.44-5.09Q106.64-5.76 106.86-6.48L106.86-6.48L111.14-19.60Q111.24-19.90 111.49-20.10Q111.74-20.30 112.12-20.30L112.12-20.30L113.66-20.30Q114.06-20.30 114.32-20.10Q114.58-19.90 114.68-19.60L114.68-19.60L118.86-6.48Q119.08-5.78 119.25-5.10Q119.42-4.42 119.58-3.76L119.58-3.76Q119.68-4.42 119.84-5.14Q120.00-5.86 120.18-6.48L120.18-6.48L124.14-19.52Q124.24-19.84 124.52-20.05Q124.80-20.26 125.18-20.26L125.18-20.26L127.86-20.26L121.30 0L118.48 0Q117.96 0 117.76-0.68L117.76-0.68L113.28-14.42Q113.12-14.88 113.02-15.35Q112.92-15.82 112.82-16.28L112.82-16.28Q112.72-15.82 112.62-15.34Q112.52-14.86 112.36-14.40L112.36-14.40L107.82-0.68Q107.60 0 107.00 0L107.00 0L104.32 0Z M133.04-20.26L136.60-20.26L136.60 0L133.04 0L133.04-20.26ZM137.40-26.62L137.40-26.62Q137.40-26.10 137.19-25.65Q136.98-25.20 136.63-24.85Q136.28-24.50 135.82-24.30Q135.36-24.10 134.84-24.10L134.84-24.10Q134.32-24.10 133.87-24.30Q133.42-24.50 133.07-24.85Q132.72-25.20 132.52-25.65Q132.32-26.10 132.32-26.62L132.32-26.62Q132.32-27.14 132.52-27.61Q132.72-28.08 133.07-28.43Q133.42-28.78 133.87-28.98Q134.32-29.18 134.84-29.18L134.84-29.18Q135.36-29.18 135.82-28.98Q136.28-28.78 136.63-28.43Q136.98-28.08 137.19-27.61Q137.40-27.14 137.40-26.62Z M156.88-18.22L156.08-16.92Q155.84-16.48 155.34-16.48L155.34-16.48Q155.04-16.48 154.66-16.70Q154.28-16.92 153.73-17.19Q153.18-17.46 152.42-17.69Q151.66-17.92 150.62-17.92L150.62-17.92Q149.72-17.92 149-17.69Q148.28-17.46 147.77-17.06Q147.26-16.66 146.99-16.13Q146.72-15.60 146.72-14.98L146.72-14.98Q146.72-14.20 147.17-13.68Q147.62-13.16 148.36-12.78Q149.10-12.40 150.04-12.11Q150.98-11.82 151.97-11.49Q152.96-11.16 153.90-10.76Q154.84-10.36 155.58-9.76Q156.32-9.16 156.77-8.29Q157.22-7.42 157.22-6.20L157.22-6.20Q157.22-4.80 156.72-3.61Q156.22-2.42 155.24-1.55Q154.26-0.68 152.84-0.18Q151.42 0.32 149.56 0.32L149.56 0.32Q147.44 0.32 145.72-0.37Q144-1.06 142.80-2.14L142.80-2.14L143.64-3.50Q143.80-3.76 144.02-3.90Q144.24-4.04 144.60-4.04L144.60-4.04Q144.96-4.04 145.36-3.76Q145.76-3.48 146.33-3.14Q146.90-2.80 147.71-2.52Q148.52-2.24 149.74-2.24L149.74-2.24Q150.78-2.24 151.56-2.51Q152.34-2.78 152.86-3.24Q153.38-3.70 153.63-4.30Q153.88-4.90 153.88-5.58L153.88-5.58Q153.88-6.42 153.43-6.97Q152.98-7.52 152.24-7.91Q151.50-8.30 150.55-8.59Q149.60-8.88 148.61-9.20Q147.62-9.52 146.67-9.93Q145.72-10.34 144.98-10.96Q144.24-11.58 143.79-12.49Q143.34-13.40 143.34-14.70L143.34-14.70Q143.34-15.86 143.82-16.93Q144.30-18 145.22-18.81Q146.14-19.62 147.48-20.10Q148.82-20.58 150.54-20.58L150.54-20.58Q152.54-20.58 154.13-19.95Q155.72-19.32 156.88-18.22L156.88-18.22Z M171.46-20.58L171.46-20.58Q173.28-20.58 174.82-19.97Q176.36-19.36 177.48-18.21Q178.60-17.06 179.23-15.37Q179.86-13.68 179.86-11.52L179.86-11.52Q179.86-10.68 179.68-10.40Q179.50-10.12 179-10.12L179-10.12L165.52-10.12Q165.56-8.20 166.04-6.78Q166.52-5.36 167.36-4.41Q168.20-3.46 169.36-2.99Q170.52-2.52 171.96-2.52L171.96-2.52Q173.30-2.52 174.27-2.83Q175.24-3.14 175.94-3.50Q176.64-3.86 177.11-4.17Q177.58-4.48 177.92-4.48L177.92-4.48Q178.36-4.48 178.60-4.14L178.60-4.14L179.60-2.84Q178.94-2.04 178.02-1.45Q177.10-0.86 176.05-0.48Q175-0.10 173.88 0.09Q172.76 0.28 171.66 0.28L171.66 0.28Q169.56 0.28 167.79-0.43Q166.02-1.14 164.73-2.51Q163.44-3.88 162.72-5.90Q162-7.92 162-10.54L162-10.54Q162-12.66 162.65-14.50Q163.30-16.34 164.52-17.69Q165.74-19.04 167.50-19.81Q169.26-20.58 171.46-20.58ZM171.54-17.96L171.54-17.96Q168.96-17.96 167.48-16.47Q166-14.98 165.64-12.34L165.64-12.34L176.66-12.34Q176.66-13.58 176.32-14.61Q175.98-15.64 175.32-16.39Q174.66-17.14 173.71-17.55Q172.76-17.96 171.54-17.96Z M186.40-29.46L189.96-29.46L189.96 0L186.40 0L186.40-29.46Z M215.08-20.26L203.78 5.98Q203.60 6.38 203.33 6.62Q203.06 6.86 202.50 6.86L202.50 6.86L199.86 6.86L203.56-1.18L195.20-20.26L198.28-20.26Q198.74-20.26 199.00-20.03Q199.26-19.80 199.38-19.52L199.38-19.52L204.80-6.76Q204.98-6.32 205.11-5.88Q205.24-5.44 205.34-4.98L205.34-4.98Q205.48-5.44 205.62-5.88Q205.76-6.32 205.94-6.78L205.94-6.78L211.20-19.52Q211.32-19.84 211.61-20.05Q211.90-20.26 212.24-20.26L212.24-20.26L215.08-20.26Z M241.64-18.22L240.84-16.92Q240.60-16.48 240.10-16.48L240.10-16.48Q239.80-16.48 239.42-16.70Q239.04-16.92 238.49-17.19Q237.94-17.46 237.18-17.69Q236.42-17.92 235.38-17.92L235.38-17.92Q234.48-17.92 233.76-17.69Q233.04-17.46 232.53-17.06Q232.02-16.66 231.75-16.13Q231.48-15.60 231.48-14.98L231.48-14.98Q231.48-14.20 231.93-13.68Q232.38-13.16 233.12-12.78Q233.86-12.40 234.80-12.11Q235.74-11.82 236.73-11.49Q237.72-11.16 238.66-10.76Q239.60-10.36 240.34-9.76Q241.08-9.16 241.53-8.29Q241.98-7.42 241.98-6.20L241.98-6.20Q241.98-4.80 241.48-3.61Q240.98-2.42 240-1.55Q239.02-0.68 237.60-0.18Q236.18 0.32 234.32 0.32L234.32 0.32Q232.20 0.32 230.48-0.37Q228.76-1.06 227.56-2.14L227.56-2.14L228.40-3.50Q228.56-3.76 228.78-3.90Q229-4.04 229.36-4.04L229.36-4.04Q229.72-4.04 230.12-3.76Q230.52-3.48 231.09-3.14Q231.66-2.80 232.47-2.52Q233.28-2.24 234.50-2.24L234.50-2.24Q235.54-2.24 236.32-2.51Q237.10-2.78 237.62-3.24Q238.14-3.70 238.39-4.30Q238.64-4.90 238.64-5.58L238.64-5.58Q238.64-6.42 238.19-6.97Q237.74-7.52 237-7.91Q236.26-8.30 235.31-8.59Q234.36-8.88 233.37-9.20Q232.38-9.52 231.43-9.93Q230.48-10.34 229.74-10.96Q229-11.58 228.55-12.49Q228.10-13.40 228.10-14.70L228.10-14.70Q228.10-15.86 228.58-16.93Q229.06-18 229.98-18.81Q230.90-19.62 232.24-20.10Q233.58-20.58 235.30-20.58L235.30-20.58Q237.30-20.58 238.89-19.95Q240.48-19.32 241.64-18.22L241.64-18.22Z M251.76 6.86L248.20 6.86L248.20-20.26L250.32-20.26Q251.08-20.26 251.28-19.52L251.28-19.52L251.58-17.12Q252.88-18.70 254.55-19.66Q256.22-20.62 258.40-20.62L258.40-20.62Q260.14-20.62 261.56-19.95Q262.98-19.28 263.98-17.97Q264.98-16.66 265.52-14.72Q266.06-12.78 266.06-10.26L266.06-10.26Q266.06-8.02 265.46-6.09Q264.86-4.16 263.74-2.75Q262.62-1.34 260.99-0.53Q259.36 0.28 257.32 0.28L257.32 0.28Q255.44 0.28 254.11-0.34Q252.78-0.96 251.76-2.10L251.76-2.10L251.76 6.86ZM257.22-17.74L257.22-17.74Q255.48-17.74 254.17-16.94Q252.86-16.14 251.76-14.68L251.76-14.68L251.76-4.88Q252.74-3.56 253.91-3.02Q255.08-2.48 256.52-2.48L256.52-2.48Q259.34-2.48 260.86-4.50Q262.38-6.52 262.38-10.26L262.38-10.26Q262.38-12.24 262.03-13.66Q261.68-15.08 261.02-15.99Q260.36-16.90 259.40-17.32Q258.44-17.74 257.22-17.74Z M279.90-20.58L279.90-20.58Q281.72-20.58 283.26-19.97Q284.80-19.36 285.92-18.21Q287.04-17.06 287.67-15.37Q288.30-13.68 288.30-11.52L288.30-11.52Q288.30-10.68 288.12-10.40Q287.94-10.12 287.44-10.12L287.44-10.12L273.96-10.12Q274.00-8.20 274.48-6.78Q274.96-5.36 275.80-4.41Q276.64-3.46 277.80-2.99Q278.96-2.52 280.40-2.52L280.40-2.52Q281.74-2.52 282.71-2.83Q283.68-3.14 284.38-3.50Q285.08-3.86 285.55-4.17Q286.02-4.48 286.36-4.48L286.36-4.48Q286.80-4.48 287.04-4.14L287.04-4.14L288.04-2.84Q287.38-2.04 286.46-1.45Q285.54-0.86 284.49-0.48Q283.44-0.10 282.32 0.09Q281.20 0.28 280.10 0.28L280.10 0.28Q278.00 0.28 276.23-0.43Q274.46-1.14 273.17-2.51Q271.88-3.88 271.16-5.90Q270.44-7.92 270.44-10.54L270.44-10.54Q270.44-12.66 271.09-14.50Q271.74-16.34 272.96-17.69Q274.18-19.04 275.94-19.81Q277.70-20.58 279.90-20.58ZM279.98-17.96L279.98-17.96Q277.40-17.96 275.92-16.47Q274.44-14.98 274.08-12.34L274.08-12.34L285.10-12.34Q285.10-13.58 284.76-14.61Q284.42-15.64 283.76-16.39Q283.10-17.14 282.15-17.55Q281.20-17.96 279.98-17.96Z M298.00 0L294.44 0L294.44-20.26L296.56-20.26Q297.32-20.26 297.52-19.52L297.52-19.52L297.80-17.32Q299.12-18.78 300.75-19.68Q302.38-20.58 304.52-20.58L304.52-20.58Q306.18-20.58 307.45-20.03Q308.72-19.48 309.57-18.47Q310.42-17.46 310.86-16.04Q311.30-14.62 311.30-12.90L311.30-12.90L311.30 0L307.74 0L307.74-12.90Q307.74-15.20 306.69-16.47Q305.64-17.74 303.48-17.74L303.48-17.74Q301.90-17.74 300.53-16.98Q299.16-16.22 298.00-14.92L298.00-14.92L298.00 0Z M334.66 0L332.54 0Q331.78 0 331.58-0.74L331.58-0.74L331.26-3.20Q329.96-1.62 328.29-0.67Q326.62 0.28 324.46 0.28L324.46 0.28Q322.72 0.28 321.30-0.39Q319.88-1.06 318.88-2.36Q317.88-3.66 317.34-5.60Q316.80-7.54 316.80-10.06L316.80-10.06Q316.80-12.30 317.40-14.23Q318.00-16.16 319.13-17.58Q320.26-19 321.88-19.81Q323.50-20.62 325.56-20.62L325.56-20.62Q327.42-20.62 328.74-19.99Q330.06-19.36 331.10-18.22L331.10-18.22L331.10-29.46L334.66-29.46L334.66 0ZM325.64-2.60L325.64-2.60Q327.38-2.60 328.69-3.40Q330.00-4.20 331.10-5.66L331.10-5.66L331.10-15.46Q330.12-16.78 328.95-17.31Q327.78-17.84 326.36-17.84L326.36-17.84Q323.52-17.84 322.00-15.82Q320.48-13.80 320.48-10.06L320.48-10.06Q320.48-8.08 320.82-6.67Q321.16-5.26 321.82-4.35Q322.48-3.44 323.44-3.02Q324.40-2.60 325.64-2.60Z M355.12 0L351.56 0L351.56-29.46L355.12-29.46L355.12-17.54Q356.42-18.92 358.00-19.75Q359.58-20.58 361.64-20.58L361.64-20.58Q363.30-20.58 364.57-20.03Q365.84-19.48 366.69-18.47Q367.54-17.46 367.98-16.04Q368.42-14.62 368.42-12.90L368.42-12.90L368.42 0L364.86 0L364.86-12.90Q364.86-15.20 363.81-16.47Q362.76-17.74 360.60-17.74L360.60-17.74Q359.02-17.74 357.65-16.98Q356.28-16.22 355.12-14.92L355.12-14.92L355.12 0Z M390.28-12.96L390.28 0L388.70 0Q388.18 0 387.86-0.16Q387.54-0.32 387.44-0.84L387.44-0.84L387.04-2.72Q386.24-2 385.48-1.43Q384.72-0.86 383.88-0.47Q383.04-0.08 382.09 0.12Q381.14 0.32 379.98 0.32L379.98 0.32Q378.80 0.32 377.77-0.01Q376.74-0.34 375.98-1Q375.22-1.66 374.77-2.67Q374.32-3.68 374.32-5.06L374.32-5.06Q374.32-6.26 374.98-7.37Q375.64-8.48 377.11-9.34Q378.58-10.20 380.96-10.75Q383.34-11.30 386.78-11.38L386.78-11.38L386.78-12.96Q386.78-15.32 385.77-16.53Q384.76-17.74 382.78-17.74L382.78-17.74Q381.48-17.74 380.59-17.41Q379.70-17.08 379.05-16.67Q378.40-16.26 377.93-15.93Q377.46-15.60 377.00-15.60L377.00-15.60Q376.64-15.60 376.37-15.79Q376.10-15.98 375.94-16.26L375.94-16.26L375.30-17.40Q376.98-19.02 378.92-19.82Q380.86-20.62 383.22-20.62L383.22-20.62Q384.92-20.62 386.24-20.06Q387.56-19.50 388.46-18.50Q389.36-17.50 389.82-16.08Q390.28-14.66 390.28-12.96L390.28-12.96ZM381.04-2.18L381.04-2.18Q381.98-2.18 382.76-2.37Q383.54-2.56 384.23-2.91Q384.92-3.26 385.55-3.76Q386.18-4.26 386.78-4.90L386.78-4.90L386.78-9.12Q384.32-9.04 382.60-8.73Q380.88-8.42 379.80-7.92Q378.72-7.42 378.23-6.74Q377.74-6.06 377.74-5.22L377.74-5.22Q377.74-4.42 378.00-3.84Q378.26-3.26 378.70-2.89Q379.14-2.52 379.74-2.35Q380.34-2.18 381.04-2.18Z M400.84 6.86L397.28 6.86L397.28-20.26L399.40-20.26Q400.16-20.26 400.36-19.52L400.36-19.52L400.66-17.12Q401.96-18.70 403.63-19.66Q405.30-20.62 407.48-20.62L407.48-20.62Q409.22-20.62 410.64-19.95Q412.06-19.28 413.06-17.97Q414.06-16.66 414.60-14.72Q415.14-12.78 415.14-10.26L415.14-10.26Q415.14-8.02 414.54-6.09Q413.94-4.16 412.82-2.75Q411.70-1.34 410.07-0.53Q408.44 0.28 406.40 0.28L406.40 0.28Q404.52 0.28 403.19-0.34Q401.86-0.96 400.84-2.10L400.84-2.10L400.84 6.86ZM406.30-17.74L406.30-17.74Q404.56-17.74 403.25-16.94Q401.94-16.14 400.84-14.68L400.84-14.68L400.84-4.88Q401.82-3.56 402.99-3.02Q404.16-2.48 405.60-2.48L405.60-2.48Q408.42-2.48 409.94-4.50Q411.46-6.52 411.46-10.26L411.46-10.26Q411.46-12.24 411.11-13.66Q410.76-15.08 410.10-15.99Q409.44-16.90 408.48-17.32Q407.52-17.74 406.30-17.74Z M424.52 6.86L420.96 6.86L420.96-20.26L423.08-20.26Q423.84-20.26 424.04-19.52L424.04-19.52L424.34-17.12Q425.64-18.70 427.31-19.66Q428.98-20.62 431.16-20.62L431.16-20.62Q432.90-20.62 434.32-19.95Q435.74-19.28 436.74-17.97Q437.74-16.66 438.28-14.72Q438.82-12.78 438.82-10.26L438.82-10.26Q438.82-8.02 438.22-6.09Q437.62-4.16 436.50-2.75Q435.38-1.34 433.75-0.53Q432.12 0.28 430.08 0.28L430.08 0.28Q428.20 0.28 426.87-0.34Q425.54-0.96 424.52-2.10L424.52-2.10L424.52 6.86ZM429.98-17.74L429.98-17.74Q428.24-17.74 426.93-16.94Q425.62-16.14 424.52-14.68L424.52-14.68L424.52-4.88Q425.50-3.56 426.67-3.02Q427.84-2.48 429.28-2.48L429.28-2.48Q432.10-2.48 433.62-4.50Q435.14-6.52 435.14-10.26L435.14-10.26Q435.14-12.24 434.79-13.66Q434.44-15.08 433.78-15.99Q433.12-16.90 432.16-17.32Q431.20-17.74 429.98-17.74Z M445.04-20.26L448.60-20.26L448.60 0L445.04 0L445.04-20.26ZM449.40-26.62L449.40-26.62Q449.40-26.10 449.19-25.65Q448.98-25.20 448.63-24.85Q448.28-24.50 447.82-24.30Q447.36-24.10 446.84-24.10L446.84-24.10Q446.32-24.10 445.87-24.30Q445.42-24.50 445.07-24.85Q444.72-25.20 444.52-25.65Q444.32-26.10 444.32-26.62L444.32-26.62Q444.32-27.14 444.52-27.61Q444.72-28.08 445.07-28.43Q445.42-28.78 445.87-28.98Q446.32-29.18 446.84-29.18L446.84-29.18Q447.36-29.18 447.82-28.98Q448.28-28.78 448.63-28.43Q448.98-28.08 449.19-27.61Q449.40-27.14 449.40-26.62Z M456.88-29.46L460.44-29.46L460.44 0L456.88 0L456.88-29.46Z M485.56-20.26L474.26 5.98Q474.08 6.38 473.81 6.62Q473.54 6.86 472.98 6.86L472.98 6.86L470.34 6.86L474.04-1.18L465.68-20.26L468.76-20.26Q469.22-20.26 469.48-20.03Q469.74-19.80 469.86-19.52L469.86-19.52L475.28-6.76Q475.46-6.32 475.59-5.88Q475.72-5.44 475.82-4.98L475.82-4.98Q475.96-5.44 476.10-5.88Q476.24-6.32 476.42-6.78L476.42-6.78L481.68-19.52Q481.80-19.84 482.09-20.05Q482.38-20.26 482.72-20.26L482.72-20.26L485.56-20.26Z"/></g>
</svg>
</g><g opacity="1" transform="rotate(0 80.3586 420.8419)">
<svg width="346.7452" height="40" x="80.3586" y="420.8419" version="1.1" preserveAspectRatio="none" viewBox="2.24 -26.6 232.32 26.800000000000004">
  <g transform="matrix(1 0 0 1 0 0)" class="companyName"><path id="id-D6z1nYkh9" d="M11.28 0L2.24 0L2.24-0.64L5.44-2.24L6.28-24.16L2.84-25.76L2.84-26.40L10.80-26.40L19.76-5.72L28.68-26.40L36.32-26.40L36.32-25.76L32.92-24.28L33.60-2.24L36.48-0.64L36.48 0L26.60 0L26.60-0.64L29.60-2.20L29.20-21.76L19.76 0.20L17.84 0.20L8.48-21.52L7.96-2.20L11.28-0.64L11.28 0Z M56.96 0L46.76 0L46.76-0.64L49.88-1.96L49.88-10.60L42.60-20.48L39.96-21.76L39.96-22.40L49.56-22.40L49.56-21.76L47.12-20.56L47.12-20.40L52.92-12.68L58.20-20.36L58.20-20.48L55.64-21.76L55.64-22.40L63.52-22.40L63.52-21.76L60.88-20.52L53.84-10.52L53.84-1.96L56.96-0.64L56.96 0Z M87.40 0.20L85.80 0.20L78.36-24.28L75.32-25.76L75.32-26.40L86.08-26.40L86.08-25.76L82.68-24.28L87.56-7.40L87.80-7.40L94.72-26.60L96.40-26.60L103.44-7.40L103.68-7.40L108.52-24.24L105.12-25.76L105.12-26.40L114-26.40L114-25.76L111.32-24.32L103.80 0.20L102.16 0.20L94.96-18.96L94.68-18.96L87.40 0.20Z M123.20 0L115.76 0L115.76-0.64L117.80-1.72L126.68-22.60L128.76-22.60L137.56-1.80L139.92-0.64L139.92 0L130.64 0L130.64-0.64L133.44-1.80L130.96-7.72L122.72-7.72L120.28-1.76L123.20-0.64L123.20 0ZM126.80-17.68L123.56-9.72L130.12-9.72L126.80-17.68Z M161.88 0L143.52 0L143.52-0.64L146.40-1.96L146.40-20.44L143.52-21.76L143.52-22.40L153.60-22.40L153.60-21.76L150.36-20.44L150.36-2L158.72-2L161.24-7.88L161.88-7.88L161.88 0Z M185.28 0L166.92 0L166.92-0.64L169.80-1.96L169.80-20.44L166.92-21.76L166.92-22.40L177-22.40L177-21.76L173.76-20.44L173.76-2L182.12-2L184.64-7.88L185.28-7.88L185.28 0Z M208.92 0L190.32 0L190.32-0.64L193.20-1.96L193.20-20.44L190.32-21.76L190.32-22.40L207.92-22.40L207.92-16.64L207.28-16.64L205.20-20.40L197.16-20.40L197.16-12.60L203.00-12.60L204.36-15.36L205.00-15.36L205.00-7.88L204.36-7.88L203.00-10.60L197.16-10.60L197.16-2L206.08-2L208.28-6.52L208.92-6.52L208.92 0Z M229.52 0L218.32 0L218.32-0.64L221.92-1.96L221.92-20.40L216.04-20.40L213.92-15.52L213.28-15.52L213.28-22.40L234.56-22.40L234.56-15.52L233.92-15.52L231.76-20.40L225.88-20.40L225.88-1.96L229.52-0.64L229.52 0Z"/></g>
</svg>
</g></svg></svg>